# xmcd
#
# Track frame offsets:
#	150
#	15522
#	28510
#	43105
#	53830
#	67420
#	80265
#	96097
#	109432
#	120445
#
# Disc length: 1780 seconds
#
# Revision: 2
# Processed by: cddbd v1.4PL0 Copyright (c) Steve Scherf et al.
# Submitted via: EasyCDDAExtractor 5.1.0
#
DISCID=8006f20a
DTITLE=Rich McCready
DYEAR=1900
DGENRE=Country
TTITLE0=Hangin' On
TTITLE1=Thinkin' Strait
TTITLE2=Takes One To Know One
TTITLE3=All American Cowboy
TTITLE4=Big Time Talk In a Small Town
TTITLE5=Most Likely To Succeed
TTITLE6=Just Like Me
TTITLE7=When Hell Freezes Over
TTITLE8=Back In the Swing of Things
TTITLE9=What You Do To Me
EXTD=
EXTT0=
EXTT1=
EXTT2=
EXTT3=
EXTT4=
EXTT5=
EXTT6=
EXTT7=
EXTT8=
EXTT9=
PLAYORDER=
